<svg width="189.8" height="68.501" viewBox="0 0 189.8 68.501" xmlns="http://www.w3.org/2000/svg"><g id="svgGroup" stroke-linecap="round" fill-rule="evenodd" font-size="9pt" stroke="#fff" stroke-width="0.25mm" fill="#fff" style="stroke:#000;stroke-width:0.25mm;fill:#fff"><path d="M 170.9 41.901 L 159.7 67.901 L 151.3 67.901 L 140 42.201 Q 139.5 41.101 138.75 39.201 Q 138 37.301 137.1 35.001 Q 136.2 32.701 135.2 30.151 Q 134.2 27.601 133.3 25.001 Q 133.3 27.601 133.25 30.151 Q 133.2 32.701 133.1 34.951 Q 133.014 36.885 132.965 38.449 A 182.267 182.267 0 0 0 132.95 38.951 Q 132.9 40.701 132.9 41.701 L 131.9 67.901 L 120.7 67.901 L 124.7 0.001 L 134 0.001 L 151.1 42.401 Q 152 44.701 153.15 47.401 Q 154.3 50.101 155.3 52.701 Q 156.3 50.101 157.4 47.451 Q 158.5 44.801 159.5 42.401 L 176.7 0.001 L 185.8 0.001 L 189.8 67.901 L 178.7 67.901 L 177.6 42.001 Q 177.523 40.087 177.418 36.913 A 1891.628 1891.628 0 0 1 177.35 34.851 Q 177.2 30.201 177.1 25.401 Q 176.2 27.901 175.25 30.401 Q 174.3 32.901 173.5 35.101 Q 172.7 37.301 172 39.101 Q 171.464 40.479 171.104 41.388 A 162.842 162.842 0 0 1 170.9 41.901 Z M 101.5 15.601 L 95.7 21.901 Q 95.394 21.671 94.912 21.237 A 29.291 29.291 0 0 1 94.6 20.951 A 11.011 11.011 0 0 0 93.921 20.373 Q 93.561 20.089 93.138 19.797 A 19.786 19.786 0 0 0 92.85 19.601 A 11.524 11.524 0 0 0 91.558 18.861 A 15.027 15.027 0 0 0 90.4 18.351 A 7.967 7.967 0 0 0 88.258 17.847 A 9.763 9.763 0 0 0 87.3 17.801 Q 85.298 17.801 83.943 18.406 A 4.641 4.641 0 0 0 82.65 19.251 Q 81.1 20.701 81.1 23.101 A 10.026 10.026 0 0 0 81.511 25.88 A 13.892 13.892 0 0 0 82.4 28.151 A 26.197 26.197 0 0 0 83.936 30.842 Q 84.841 32.24 86 33.701 Q 88.3 36.601 91.5 39.751 Q 94.7 42.901 98.6 46.301 A 68.762 68.762 0 0 0 100.547 42.839 A 62.627 62.627 0 0 0 100.8 42.351 Q 101.8 40.401 102.6 38.401 L 111 41.801 A 130.104 130.104 0 0 1 109.527 45.024 A 154.399 154.399 0 0 1 108.55 47.051 Q 107.2 49.801 105.5 52.401 L 115.2 60.801 L 109.5 68.401 L 99.3 60.101 Q 95.5 63.801 90.5 66.151 Q 85.5 68.501 78.9 68.501 Q 75.5 68.501 72.25 67.351 Q 69 66.201 66.45 63.951 A 16.93 16.93 0 0 1 62.448 58.653 A 19.328 19.328 0 0 1 62.35 58.451 A 15.783 15.783 0 0 1 60.984 53.784 A 20.352 20.352 0 0 1 60.8 51.001 A 22.668 22.668 0 0 1 61.132 47.044 A 18.457 18.457 0 0 1 61.85 44.251 Q 62.9 41.201 64.5 38.801 Q 66.1 36.401 68.05 34.601 A 44.71 44.71 0 0 1 69.708 33.141 Q 70.55 32.438 71.339 31.861 A 26.09 26.09 0 0 1 71.7 31.601 A 22.827 22.827 0 0 1 69.977 27.06 A 17.923 17.923 0 0 1 69.4 22.601 Q 69.4 19.901 70.35 17.351 Q 71.3 14.801 73.35 12.801 A 13.135 13.135 0 0 1 76.121 10.756 A 17.721 17.721 0 0 1 78.65 9.601 A 18.004 18.004 0 0 1 81.872 8.76 Q 83.984 8.401 86.5 8.401 A 22.314 22.314 0 0 1 90.668 8.771 A 16.003 16.003 0 0 1 95.25 10.351 Q 98.9 12.301 101.5 15.601 Z M 0 67.901 L 0 0.201 Q 0.572 0.201 2.211 0.168 A 570.405 570.405 0 0 0 3 0.151 A 200.432 200.432 0 0 1 5.288 0.115 Q 6.488 0.103 7.817 0.101 A 329.643 329.643 0 0 1 8.2 0.101 A 367.734 367.734 0 0 0 13.428 0.063 A 406.127 406.127 0 0 0 14.2 0.051 Q 16.331 0.017 18.084 0.006 A 247.85 247.85 0 0 1 19.6 0.001 A 54.353 54.353 0 0 1 28.918 0.746 Q 33.976 1.628 37.946 3.554 A 24.114 24.114 0 0 1 44.8 8.451 A 26.629 26.629 0 0 1 50.885 18.768 Q 53 25.121 53 33.601 Q 53 45.601 48.663 53.574 A 26.842 26.842 0 0 1 44.6 59.201 Q 37.871 66.331 25.044 67.749 A 61.447 61.447 0 0 1 18.3 68.101 Q 15.2 68.101 12.25 68.051 Q 9.3 68.001 6.85 68.001 Q 5.166 68.001 3.788 67.977 A 112.265 112.265 0 0 1 2.6 67.951 Q 0.942 67.905 0.133 67.901 A 29.576 29.576 0 0 0 0 67.901 Z M 11.9 9.001 L 11.9 59.101 A 20.435 20.435 0 0 0 12.733 59.158 Q 13.602 59.201 14.75 59.201 L 19.8 59.201 Q 30.3 59.201 35.2 53.051 A 19.587 19.587 0 0 0 38.373 47.056 Q 40.1 41.945 40.1 34.701 A 50.71 50.71 0 0 0 39.775 28.835 A 39.171 39.171 0 0 0 38.95 24.151 Q 37.8 19.401 35.15 16.001 A 17.45 17.45 0 0 0 28.479 10.809 A 20.296 20.296 0 0 0 28.35 10.751 A 19.941 19.941 0 0 0 24.053 9.423 Q 22.054 9.032 19.761 8.934 A 36.601 36.601 0 0 0 18.2 8.901 Q 15.927 8.901 14.387 8.95 A 64.667 64.667 0 0 0 14.35 8.951 Q 12.8 9.001 11.9 9.001 Z M 92.2 54.101 Q 87.7 50.301 83.65 46.501 A 75.679 75.679 0 0 1 79.104 41.87 A 61.583 61.583 0 0 1 76.6 38.901 A 12.249 12.249 0 0 0 75.522 40.248 Q 75.01 40.982 74.512 41.877 A 25.949 25.949 0 0 0 73.9 43.051 Q 72.6 45.701 72.6 49.501 A 11.899 11.899 0 0 0 72.916 52.324 A 8.037 8.037 0 0 0 75.1 56.251 Q 77.394 58.5 81.458 58.685 A 16.332 16.332 0 0 0 82.2 58.701 Q 84.9 58.701 87.4 57.501 Q 89.9 56.301 92.2 54.101 Z" vector-effect="non-scaling-stroke"/></g></svg>